FILE "Space Jam (USA) (Track 01).bin" BINARY
  TRACK 01 MODE1/2352
    INDEX 01 00:00:00
FILE "Space Jam (USA) (Track 02).bin" BINARY
  TRACK 02 AUDIO
    INDEX 00 00:00:00
    INDEX 01 00:02:00
    INDEX 02 00:04:04
    INDEX 03 00:06:12
    INDEX 04 00:07:65
    INDEX 05 00:09:40
    INDEX 06 00:11:20
    INDEX 07 00:13:09
    INDEX 08 00:14:21
    INDEX 09 00:15:10
    INDEX 10 00:16:15
    INDEX 11 00:17:16
    INDEX 12 00:18:16
    INDEX 13 00:19:15
    INDEX 14 00:20:15
    INDEX 15 00:21:60
    INDEX 16 00:23:40
    INDEX 17 00:25:08
    INDEX 18 00:26:18
    INDEX 19 00:29:29
    INDEX 20 00:31:69
    INDEX 21 00:34:06
    INDEX 22 00:35:20
    INDEX 23 00:36:54
    INDEX 24 00:38:03
    INDEX 25 00:39:41
    INDEX 26 00:40:74
    INDEX 27 00:42:19
    INDEX 28 00:43:31
    INDEX 29 00:44:52
    INDEX 30 00:45:68
    INDEX 31 00:47:01
    INDEX 32 00:47:74
    INDEX 33 00:49:13
    INDEX 34 00:50:31
    INDEX 35 00:52:34
    INDEX 36 00:53:50
    INDEX 37 00:55:74
    INDEX 38 00:57:30
    INDEX 39 00:58:69
    INDEX 40 01:00:12
    INDEX 41 01:01:15
    INDEX 42 01:02:31
    INDEX 43 01:03:46
    INDEX 44 01:04:24
    INDEX 45 01:04:74
    INDEX 46 01:06:33
    INDEX 47 01:07:70
    INDEX 48 01:08:67
    INDEX 49 01:09:60
    INDEX 50 01:10:43
    INDEX 51 01:12:15
    INDEX 52 01:13:57
    INDEX 53 01:15:51
    INDEX 54 01:16:50
    INDEX 55 01:17:62
    INDEX 56 01:18:69
    INDEX 57 01:20:08
    INDEX 58 01:21:25
    INDEX 59 01:22:41
    INDEX 60 01:25:17
    INDEX 61 01:28:24
    INDEX 62 01:30:70
    INDEX 63 01:33:57
    INDEX 64 01:35:69
    INDEX 65 01:36:53
    INDEX 66 01:37:31
    INDEX 67 01:38:07
    INDEX 68 01:38:63
    INDEX 69 01:39:43
    INDEX 70 01:40:68
    INDEX 71 01:42:00
    INDEX 72 01:43:30
    INDEX 73 01:44:44
    INDEX 74 01:45:18
    INDEX 75 01:45:65
    INDEX 76 01:47:47
    INDEX 77 01:48:58
    INDEX 78 01:50:40
    INDEX 79 01:51:42
    INDEX 80 01:52:17
    INDEX 81 01:53:12
    INDEX 82 01:54:47
    INDEX 83 01:55:57
    INDEX 84 01:57:20
    INDEX 85 01:57:71
    INDEX 86 01:59:36
    INDEX 87 02:00:70
    INDEX 88 02:02:15
    INDEX 89 02:03:55
    INDEX 90 02:04:33
    INDEX 91 02:06:44
    INDEX 92 02:09:52
    INDEX 93 02:11:16
    INDEX 94 02:11:63
    INDEX 95 02:12:57
    INDEX 96 02:14:05
    INDEX 97 02:17:55
    INDEX 98 02:20:33
FILE "Space Jam (USA) (Track 03).bin" BINARY
  TRACK 03 AUDIO
    INDEX 00 00:00:00
    INDEX 01 00:02:00
    INDEX 02 00:03:40
    INDEX 03 00:07:15
    INDEX 04 00:10:26
    INDEX 05 00:12:39
    INDEX 06 00:14:69
    INDEX 07 00:16:51
    INDEX 08 00:18:59
    INDEX 09 00:20:27
    INDEX 10 00:22:38
    INDEX 11 00:24:41
    INDEX 12 00:25:48
    INDEX 13 00:26:13
    INDEX 14 00:27:00
    INDEX 15 00:28:40
    INDEX 16 00:29:70
    INDEX 17 00:31:71
    INDEX 18 00:34:12
    INDEX 19 00:36:12
    INDEX 20 00:37:52
    INDEX 21 00:41:00
    INDEX 22 00:43:17
    INDEX 23 00:44:70
    INDEX 24 00:46:45
    INDEX 25 00:48:17
    INDEX 26 00:49:64
    INDEX 27 00:51:11
    INDEX 28 00:51:70
    INDEX 29 00:52:52
    INDEX 30 00:53:31
    INDEX 31 00:54:12
    INDEX 32 00:54:70
    INDEX 33 00:55:66
    INDEX 34 00:57:45
    INDEX 35 01:01:15
    INDEX 36 01:04:20
    INDEX 37 01:07:45
    INDEX 38 01:11:03
    INDEX 39 01:14:29
    INDEX 40 01:16:34
    INDEX 41 01:17:39
    INDEX 42 01:18:69
    INDEX 43 01:19:65
    INDEX 44 01:21:54
    INDEX 45 01:22:72
    INDEX 46 01:24:34
    INDEX 47 01:25:52
    INDEX 48 01:27:38
    INDEX 49 01:29:28
    INDEX 50 01:34:36
    INDEX 51 01:38:53
    INDEX 52 01:43:43
    INDEX 53 01:48:46
    INDEX 54 01:50:01
    INDEX 55 01:50:52
    INDEX 56 01:52:16
    INDEX 57 01:53:13
    INDEX 58 01:54:24
    INDEX 59 01:55:46
    INDEX 60 01:56:74
    INDEX 61 01:57:71
    INDEX 62 01:59:67
    INDEX 63 02:00:60
    INDEX 64 02:01:44
    INDEX 65 02:04:18
    INDEX 66 02:05:61
    INDEX 67 02:07:18
    INDEX 68 02:08:18
    INDEX 69 02:10:74
    INDEX 70 02:12:51
    INDEX 71 02:14:43
    INDEX 72 02:15:60
    INDEX 73 02:17:59
    INDEX 74 02:19:73
    INDEX 75 02:21:33
    INDEX 76 02:22:32
    INDEX 77 02:23:37
    INDEX 78 02:24:64
    INDEX 79 02:26:26
    INDEX 80 02:28:07
    INDEX 81 02:29:12
    INDEX 82 02:29:61
    INDEX 83 02:31:69
    INDEX 84 02:33:29
    INDEX 85 02:36:00
    INDEX 86 02:37:24
    INDEX 87 02:39:47
    INDEX 88 02:41:15
    INDEX 89 02:42:12
    INDEX 90 02:44:21
    INDEX 91 02:45:66
FILE "Space Jam (USA) (Track 04).bin" BINARY
  TRACK 04 AUDIO
    INDEX 00 00:00:00
    INDEX 01 00:02:00
    INDEX 02 00:02:48
    INDEX 03 00:03:38
    INDEX 04 00:05:05
    INDEX 05 00:07:06
    INDEX 06 00:09:11
    INDEX 07 00:10:52
    INDEX 08 00:12:43
    INDEX 09 00:14:58
    INDEX 10 00:17:00
    INDEX 11 00:18:50
    INDEX 12 00:20:08
    INDEX 13 00:20:70
    INDEX 14 00:21:51
    INDEX 15 00:23:12
    INDEX 16 00:24:61
    INDEX 17 00:27:29
    INDEX 18 00:29:53
    INDEX 19 00:31:38
    INDEX 20 00:32:12
    INDEX 21 00:32:54
    INDEX 22 00:34:61
    INDEX 23 00:36:28
    INDEX 24 00:37:71
    INDEX 25 00:40:07
    INDEX 26 00:40:68
    INDEX 27 00:42:71
    INDEX 28 00:44:39
    INDEX 29 00:45:46
    INDEX 30 00:47:47
    INDEX 31 00:50:67
    INDEX 32 00:53:26
    INDEX 33 00:55:25
    INDEX 34 00:57:25
    INDEX 35 00:59:41
    INDEX 36 01:02:01
    INDEX 37 01:03:69
    INDEX 38 01:05:74
    INDEX 39 01:07:62
    INDEX 40 01:09:61
    INDEX 41 01:11:58
    INDEX 42 01:14:08
    INDEX 43 01:16:10
    INDEX 44 01:18:22
    INDEX 45 01:20:42
    INDEX 46 01:22:58
    INDEX 47 01:25:06
    INDEX 48 01:27:57
    INDEX 49 01:30:14
    INDEX 50 01:32:36
    INDEX 51 01:34:33
    INDEX 52 01:36:51
    INDEX 53 01:38:56
    INDEX 54 01:40:67
    INDEX 55 01:43:07
    INDEX 56 01:45:23
    INDEX 57 01:47:55
    INDEX 58 01:49:65
    INDEX 59 01:52:08
    INDEX 60 01:54:05
    INDEX 61 01:56:36
    INDEX 62 01:58:53
    INDEX 63 02:01:31
    INDEX 64 02:03:16
    INDEX 65 02:04:37
    INDEX 66 02:05:68
    INDEX 67 02:07:26
    INDEX 68 02:09:21
    INDEX 69 02:11:26
    INDEX 70 02:13:01
    INDEX 71 02:14:44
    INDEX 72 02:17:14
    INDEX 73 02:19:43
    INDEX 74 02:21:07
    INDEX 75 02:23:19
    INDEX 76 02:24:56
    INDEX 77 02:27:02
    INDEX 78 02:28:47
    INDEX 79 02:31:35
    INDEX 80 02:33:22
    INDEX 81 02:35:28
    INDEX 82 02:37:24
    INDEX 83 02:39:30
    INDEX 84 02:41:40
    INDEX 85 02:43:42
    INDEX 86 02:45:46
    INDEX 87 02:47:50
    INDEX 88 02:49:40
    INDEX 89 02:51:43
    INDEX 90 02:53:36
    INDEX 91 02:55:65
    INDEX 92 02:57:71
    INDEX 93 03:00:27
    INDEX 94 03:02:51
    INDEX 95 03:04:71
    INDEX 96 03:07:23
    INDEX 97 03:09:74
    INDEX 98 03:12:35
    INDEX 99 03:14:64
FILE "Space Jam (USA) (Track 05).bin" BINARY
  TRACK 05 AUDIO
    INDEX 00 00:00:00
    INDEX 01 00:02:00
    INDEX 02 00:04:27
    INDEX 03 00:06:22
    INDEX 04 00:08:32
    INDEX 05 00:10:50
    INDEX 06 00:12:67
    INDEX 07 00:15:00
    INDEX 08 00:16:74
    INDEX 09 00:19:04
    INDEX 10 00:21:22
    INDEX 11 00:23:10
    INDEX 12 00:25:29
    INDEX 13 00:27:41
    INDEX 14 00:29:61
    INDEX 15 00:32:72
    INDEX 16 00:34:61
    INDEX 17 00:36:69
    INDEX 18 00:38:64
    INDEX 19 00:39:30
    INDEX 20 00:41:39
    INDEX 21 00:42:73
    INDEX 22 00:45:30
    INDEX 23 00:47:06
    INDEX 24 00:48:36
    INDEX 25 00:49:67
    INDEX 26 00:52:49
    INDEX 27 00:54:66
    INDEX 28 00:56:24
    INDEX 29 00:57:19
    INDEX 30 00:58:39
    INDEX 31 00:59:56
    INDEX 32 01:01:04
    INDEX 33 01:01:72
    INDEX 34 01:02:73
    INDEX 35 01:04:21
    INDEX 36 01:05:63
    INDEX 37 01:06:69
    INDEX 38 01:08:12
    INDEX 39 01:09:09
    INDEX 40 01:10:15
    INDEX 41 01:11:12
    INDEX 42 01:12:12
    INDEX 43 01:13:07
    INDEX 44 01:14:00
    INDEX 45 01:14:65
    INDEX 46 01:15:49
    INDEX 47 01:16:10
    INDEX 48 01:17:32
    INDEX 49 01:18:26
    INDEX 50 01:19:59
    INDEX 51 01:22:20
    INDEX 52 01:24:17
    INDEX 53 01:26:73
    INDEX 54 01:28:61
    INDEX 55 01:31:36
    INDEX 56 01:33:69
    INDEX 57 01:36:54
    INDEX 58 01:38:25
    INDEX 59 01:39:56
    INDEX 60 01:40:17
    INDEX 61 01:40:71
    INDEX 62 01:42:26
    INDEX 63 01:42:71
    INDEX 64 01:44:23
    INDEX 65 01:47:54
    INDEX 66 01:51:42
    INDEX 67 01:54:09
    INDEX 68 01:56:25
    INDEX 69 01:58:20
    INDEX 70 01:59:23
    INDEX 71 02:00:20
    INDEX 72 02:02:16
    INDEX 73 02:03:51
    INDEX 74 02:05:07
    INDEX 75 02:06:32
    INDEX 76 02:07:23
    INDEX 77 02:09:20
    INDEX 78 02:10:71
    INDEX 79 02:12:24
    INDEX 80 02:13:58
    INDEX 81 02:15:24
    INDEX 82 02:16:33
    INDEX 83 02:17:72
    INDEX 84 02:19:40
    INDEX 85 02:21:10
    INDEX 86 02:22:59
    INDEX 87 02:23:69
    INDEX 88 02:24:73
    INDEX 89 02:26:25
    INDEX 90 02:27:17
    INDEX 91 02:29:34
    INDEX 92 02:30:06
    INDEX 93 02:31:28
    INDEX 94 02:33:59
    INDEX 95 02:35:52
    INDEX 96 02:37:07
FILE "Space Jam (USA) (Track 06).bin" BINARY
  TRACK 06 AUDIO
    INDEX 00 00:00:00
    INDEX 01 00:02:00
    INDEX 02 00:03:59
    INDEX 03 00:06:24
    INDEX 04 00:08:26
    INDEX 05 00:10:16
    INDEX 06 00:11:14
    INDEX 07 00:12:28
    INDEX 08 00:15:21
    INDEX 09 00:17:42
    INDEX 10 00:21:21
    INDEX 11 00:24:65
    INDEX 12 00:24:66
    INDEX 13 00:26:02
    INDEX 14 00:27:34
    INDEX 15 00:28:46
    INDEX 16 00:29:37
    INDEX 17 00:30:31
    INDEX 18 00:31:42
    INDEX 19 00:32:67
    INDEX 20 00:34:49
    INDEX 21 00:35:60
    INDEX 22 00:37:54
    INDEX 23 00:39:12
    INDEX 24 00:41:10
    INDEX 25 00:42:14
    INDEX 26 00:43:34
    INDEX 27 00:45:08
    INDEX 28 00:46:51
    INDEX 29 00:47:48
    INDEX 30 00:49:20
    INDEX 31 00:51:10
    INDEX 32 00:51:62
    INDEX 33 00:53:03
    INDEX 34 00:54:26
    INDEX 35 00:55:54
    INDEX 36 00:58:05
    INDEX 37 00:59:72
    INDEX 38 01:01:06
    INDEX 39 01:02:24
    INDEX 40 01:03:59
    INDEX 41 01:06:52
    INDEX 42 01:08:43
    INDEX 43 01:10:62
    INDEX 44 01:11:27
    INDEX 45 01:11:63
    INDEX 46 01:12:72
    INDEX 47 01:13:72
    INDEX 48 01:15:09
    INDEX 49 01:16:07
    INDEX 50 01:17:13
    INDEX 51 01:18:09
    INDEX 52 01:20:42
    INDEX 53 01:22:11
    INDEX 54 01:23:73
    INDEX 55 01:25:54
    INDEX 56 01:27:29
    INDEX 57 01:29:11
    INDEX 58 01:31:60
    INDEX 59 01:34:31
    INDEX 60 01:36:52
    INDEX 61 01:38:29
    INDEX 62 01:41:06
    INDEX 63 01:42:56
    INDEX 64 01:45:44
    INDEX 65 01:47:52
    INDEX 66 01:50:11
    INDEX 67 01:52:39
    INDEX 68 01:55:01
    INDEX 69 01:56:58
    INDEX 70 01:59:17
    INDEX 71 02:01:50
    INDEX 72 02:04:12
    INDEX 73 02:06:44
    INDEX 74 02:09:04
    INDEX 75 02:11:30
    INDEX 76 02:14:16
    INDEX 77 02:15:71
    INDEX 78 02:18:60
    INDEX 79 02:21:42
    INDEX 80 02:24:20
    INDEX 81 02:27:04
    INDEX 82 02:30:13
    INDEX 83 02:33:07
    INDEX 84 02:35:65
    INDEX 85 02:38:24
    INDEX 86 02:41:21
    INDEX 87 02:44:10
    INDEX 88 02:46:67
    INDEX 89 02:49:48
    INDEX 90 02:52:19
    INDEX 91 02:54:68
    INDEX 92 02:57:38
    INDEX 93 02:59:70
    INDEX 94 03:02:50
    INDEX 95 03:04:58
    INDEX 96 03:07:09
    INDEX 97 03:09:44
    INDEX 98 03:10:63
    INDEX 99 03:12:68
FILE "Space Jam (USA) (Track 07).bin" BINARY
  TRACK 07 AUDIO
    INDEX 00 00:00:00
    INDEX 01 00:02:00
    INDEX 02 00:04:19
    INDEX 03 00:06:30
    INDEX 04 00:07:72
    INDEX 05 00:09:42
    INDEX 06 00:11:43
    INDEX 07 00:13:55
    INDEX 08 00:15:70
    INDEX 09 00:18:33
    INDEX 10 00:20:48
    INDEX 11 00:23:13
    INDEX 12 00:25:46
    INDEX 13 00:28:01
    INDEX 14 00:30:37
    INDEX 15 00:33:22
    INDEX 16 00:35:67
    INDEX 17 00:38:27
    INDEX 18 00:40:36
    INDEX 19 00:43:02
    INDEX 20 00:45:45
    INDEX 21 00:48:05
    INDEX 22 00:50:51
    INDEX 23 00:53:34
    INDEX 24 00:56:03
    INDEX 25 00:58:37
    INDEX 26 01:00:67
    INDEX 27 01:03:36
    INDEX 28 01:05:51
    INDEX 29 01:08:14
    INDEX 30 01:10:47
    INDEX 31 01:11:68
    INDEX 32 01:13:32
    INDEX 33 01:15:03
    INDEX 34 01:17:05
    INDEX 35 01:18:36
    INDEX 36 01:21:14
    INDEX 37 01:22:28
    INDEX 38 01:23:44
    INDEX 39 01:25:43
    INDEX 40 01:26:74
    INDEX 41 01:27:64
    INDEX 42 01:28:37
    INDEX 43 01:29:41
    INDEX 44 01:31:03
    INDEX 45 01:32:27
    INDEX 46 01:34:33
    INDEX 47 01:35:72
    INDEX 48 01:39:27
    INDEX 49 01:41:49
    INDEX 50 01:42:50
FILE "Space Jam (USA) (Track 08).bin" BINARY
  TRACK 08 AUDIO
    INDEX 00 00:00:00
    INDEX 01 00:02:00
    INDEX 02 00:07:00
    INDEX 03 00:11:71
    INDEX 04 00:13:03
    INDEX 05 00:14:47
    INDEX 06 00:17:69
    INDEX 07 00:21:53
    INDEX 08 00:27:11
    INDEX 09 00:32:43
    INDEX 10 00:37:12
    INDEX 11 00:40:43
    INDEX 12 00:44:69
    INDEX 13 00:48:16
    INDEX 14 00:52:08
    INDEX 15 00:54:63
    INDEX 16 00:57:39
    INDEX 17 01:01:00
    INDEX 18 01:03:74
    INDEX 19 01:05:37
    INDEX 20 01:06:59
    INDEX 21 01:10:29
    INDEX 22 01:14:27
    INDEX 23 01:15:07
    INDEX 24 01:16:66
    INDEX 25 01:19:17
    INDEX 26 01:21:15
    INDEX 27 01:22:60
    INDEX 28 01:26:60
    INDEX 29 01:28:65
    INDEX 30 01:30:34
    INDEX 31 01:33:20
FILE "Space Jam (USA) (Track 09).bin" BINARY
  TRACK 09 AUDIO
    INDEX 00 00:00:00
    INDEX 01 00:02:00
FILE "Space Jam (USA) (Track 10).bin" BINARY
  TRACK 10 AUDIO
    INDEX 00 00:00:00
    INDEX 01 00:02:00
FILE "Space Jam (USA) (Track 11).bin" BINARY
  TRACK 11 AUDIO
    INDEX 00 00:00:00
    INDEX 01 00:02:00
FILE "Space Jam (USA) (Track 12).bin" BINARY
  TRACK 12 AUDIO
    INDEX 00 00:00:00
    INDEX 01 00:02:00
    INDEX 02 00:21:73
    INDEX 03 00:40:45
    INDEX 04 00:51:71
FILE "Space Jam (USA) (Track 13).bin" BINARY
  TRACK 13 AUDIO
    INDEX 00 00:00:00
    INDEX 01 00:02:00
FILE "Space Jam (USA) (Track 14).bin" BINARY
  TRACK 14 AUDIO
    INDEX 00 00:00:00
    INDEX 01 00:02:00
FILE "Space Jam (USA) (Track 15).bin" BINARY
  TRACK 15 AUDIO
    INDEX 00 00:00:00
    INDEX 01 00:02:00
FILE "Space Jam (USA) (Track 16).bin" BINARY
  TRACK 16 AUDIO
    INDEX 00 00:00:00
    INDEX 01 00:02:00
